# xmcd
#
# Track frame offsets:
#	150
#	21285
#	42957
#	63490
#	80977
#	103877
#	119405
#	136625
#	156667
#	173842
#	194612
#	213115
#	233657
#	250915
#	268412
#
# Disc length: 3892 seconds
#
# Revision: 4
# Processed by: cddbd v1.5.2PL0 Copyright (c) Steve Scherf et al.
# Submitted via: EasyCDDAExtractor 15.3.0.1
#
DISCID=e00f320f
DTITLE=Ricky Martin - Sound Loaded
DYEAR=2000
DGENRE=Pop
TTITLE0=She Bangs
TTITLE1=Saint Tropez
TTITLE2=Come To Me
TTITLE3=Loaded
TTITLE4=Nobody Wants To Be Lonely
TTITLE5=Amor
TTITLE6=Jezabel
TTITLE7=The Touch
TTITLE8=One Night Man
TTITLE9=She Bangs (Spanish Version)
TTITLE10=Are You In It For Love
TTITLE11=Ven A Mi (Come To Me)
TTITLE12=If You Ever Saw Her
TTITLE13=Dame Mas (Loaded)
TTITLE14=Cambia La Piel
EXTD=Ricky Martin, Sound Loaded
EXTT0=
EXTT1=
EXTT2=
EXTT3=
EXTT4=
EXTT5=
EXTT6=
EXTT7=
EXTT8=
EXTT9=
EXTT10=
EXTT11=
EXTT12=
EXTT13=
EXTT14=
PLAYORDER=
